ffmpeg started on 2025-06-23 at 19:54:39
Report written to "D:\Convert\FFMetrics\reports\psnr_report-6.txt"
Log level: 32
Command line:
ffmpeg -hide_banner -nostdin -i "G:\\\xc0\xed\xe8\xec\xe5\\[\xd2\xee\xef-4]\\\xcc\xee\xe6\xe5\xf2, \xff \xe2\xf1\xf2\xf0\xe5\xf7\xf3 \xf2\xe5\xe1\xff \xe2 \xef\xee\xe4\xe7\xe5\xec\xe5\xeb\xfc\xe5\\\xd2\xc2-1\\DanMachi_[05]_[AniLibria_TV]_[HDTVRip_720p]_HEVC.mkv" -i "G:\\\xc0\xed\xe8\xec\xe5\\[\xd2\xee\xef-4]\\\xcc\xee\xe6\xe5\xf2, \xff \xe2\xf1\xf2\xf0\xe5\xf7\xf3 \xf2\xe5\xe1\xff \xe2 \xef\xee\xe4\xe7\xe5\xec\xe5\xeb\xfc\xe5\\\xd2\xc2-1\\DanMachi_[05]_[AniLibria_TV]_[HDTVRip_720p].mkv" -lavfi "[0:v]settb=AVTB,setpts=PTS-STARTPTS,format=pix_fmts=yuv420p10,fps=24000/1001,scale=1280:720:flags=bicubic[main];[1:v]settb=AVTB,setpts=PTS-STARTPTS,format=pix_fmts=yuv420p,fps=24000/1001,scale=1280:720:flags=bicubic[ref];[main][ref]psnr=eof_action=endall:stats_file='D\\:/Convert/FFMetrics/logs/psnr_logfile-6.txt'" -f null -
Input #0, matroska,webm, from 'G:\Аниме\[Топ-4]\Может, я встречу тебя в подземелье\ТВ-1\DanMachi_[05]_[AniLibria_TV]_[HDTVRip_720p]_HEVC.mkv':
  Metadata:
    ENCODER         : Lavf61.7.100
  Duration: 00:23:41.10, start: -0.021000, bitrate: 741 kb/s
  Stream #0:0(jpn): Video: hevc (Main 10), yuv420p10le(tv, bt709, progressive), 1280x720 [SAR 1:1 DAR 16:9], 23.98 fps, 23.98 tbr, 1k tbn (default)
      Metadata:
        title           : Original [HorribleSubs]
        ENCODER         : Lavc61.19.100 libx265
        BPS             : 543604
        DURATION        : 00:23:41.045708375
        NUMBER_OF_FRAMES: 34071
        NUMBER_OF_BYTES : 96560824
        _STATISTICS_WRITING_APP: mkvpropedit v66.0.0 ('Josie') 64-bit
        _STATISTICS_WRITING_DATE_UTC: 2025-06-23 08:03:20
        _STATISTICS_TAGS: BPS DURATION NUMBER_OF_FRAMES NUMBER_OF_BYTES
  Stream #0:1(rus): Audio: aac (LC), 48000 Hz, stereo, fltp (default)
      Metadata:
        title           : Metacarmex & Say
        ENCODER         : Lavc61.19.100 aac
        BPS             : 193788
        DURATION        : 00:23:41.076000000
        NUMBER_OF_FRAMES: 66614
        NUMBER_OF_BYTES : 34423442
        _STATISTICS_WRITING_APP: mkvpropedit v66.0.0 ('Josie') 64-bit
        _STATISTICS_WRITING_DATE_UTC: 2025-06-23 08:03:20
        _STATISTICS_TAGS: BPS DURATION NUMBER_OF_FRAMES NUMBER_OF_BYTES
  Stream #0:2(rus): Subtitle: ass (ssa) (default)
      Metadata:
        title           : Надписи
        BPS             : 3
        DURATION        : 00:22:42.280000000
        NUMBER_OF_FRAMES: 5
        NUMBER_OF_BYTES : 555
        _STATISTICS_WRITING_APP: mkvpropedit v66.0.0 ('Josie') 64-bit
        _STATISTICS_WRITING_DATE_UTC: 2025-06-23 08:03:20
        _STATISTICS_TAGS: BPS DURATION NUMBER_OF_FRAMES NUMBER_OF_BYTES
  Stream #0:3(rus): Subtitle: ass (ssa)
      Metadata:
        title           : Полные
        BPS             : 129
        DURATION        : 00:23:33.790000000
        NUMBER_OF_FRAMES: 367
        NUMBER_OF_BYTES : 22916
        _STATISTICS_WRITING_APP: mkvpropedit v66.0.0 ('Josie') 64-bit
        _STATISTICS_WRITING_DATE_UTC: 2025-06-23 08:03:20
        _STATISTICS_TAGS: BPS DURATION NUMBER_OF_FRAMES NUMBER_OF_BYTES
Input #1, matroska,webm, from 'G:\Аниме\[Топ-4]\Может, я встречу тебя в подземелье\ТВ-1\DanMachi_[05]_[AniLibria_TV]_[HDTVRip_720p].mkv':
  Metadata:
    encoder         : libebml v1.4.2 + libmatroska v1.6.4
    creation_time   : 2025-01-14T16:49:20.000000Z
  Duration: 00:23:41.08, start: 0.000000, bitrate: 1968 kb/s
  Stream #1:0(jpn): Video: h264 (High), yuv420p(progressive), 1280x720, SAR 1:1 DAR 16:9, 23.98 fps, 23.98 tbr, 1k tbn (default)
      Metadata:
        title           : Original [HorribleSubs]
        BPS             : 1770827
        DURATION        : 00:23:41.046000000
        NUMBER_OF_FRAMES: 34071
        NUMBER_OF_BYTES : 314553363
        _STATISTICS_WRITING_APP: mkvmerge v66.0.0 ('Josie') 64-bit
        _STATISTICS_WRITING_DATE_UTC: 2025-01-14 16:49:20
        _STATISTICS_TAGS: BPS DURATION NUMBER_OF_FRAMES NUMBER_OF_BYTES
  Stream #1:1(rus): Audio: aac (LC), 48000 Hz, stereo, fltp (default)
      Metadata:
        title           : Metacarmex & Say
        BPS             : 192090
        DURATION        : 00:23:41.077000000
        NUMBER_OF_FRAMES: 66613
        NUMBER_OF_BYTES : 34121885
        _STATISTICS_WRITING_APP: mkvmerge v66.0.0 ('Josie') 64-bit
        _STATISTICS_WRITING_DATE_UTC: 2025-01-14 16:49:20
        _STATISTICS_TAGS: BPS DURATION NUMBER_OF_FRAMES NUMBER_OF_BYTES
  Stream #1:2(rus): Subtitle: ass (ssa) (default)
      Metadata:
        title           : Надписи
        BPS             : 3
        DURATION        : 00:22:42.280000000
        NUMBER_OF_FRAMES: 5
        NUMBER_OF_BYTES : 555
        _STATISTICS_WRITING_APP: mkvmerge v66.0.0 ('Josie') 64-bit
        _STATISTICS_WRITING_DATE_UTC: 2025-01-14 16:49:20
        _STATISTICS_TAGS: BPS DURATION NUMBER_OF_FRAMES NUMBER_OF_BYTES
  Stream #1:3(rus): Subtitle: ass (ssa)
      Metadata:
        title           : Полные
        BPS             : 129
        DURATION        : 00:23:33.790000000
        NUMBER_OF_FRAMES: 367
        NUMBER_OF_BYTES : 22916
        _STATISTICS_WRITING_APP: mkvmerge v66.0.0 ('Josie') 64-bit
        _STATISTICS_WRITING_DATE_UTC: 2025-01-14 16:49:20
        _STATISTICS_TAGS: BPS DURATION NUMBER_OF_FRAMES NUMBER_OF_BYTES
  Stream #1:4: Attachment: ttf
      Metadata:
        filename        : ChinaCyr.ttf
        mimetype        : application/x-truetype-font
  Stream #1:5: Attachment: ttf
      Metadata:
        filename        : TkhO4vNj.ttf
        mimetype        : application/x-truetype-font
  Stream #1:6: Attachment: ttf
      Metadata:
        filename        : bonzai.ttf
        mimetype        : application/x-truetype-font
  Stream #1:7: Attachment: ttf
      Metadata:
        filename        : OpenSans-Semibold.ttf
        mimetype        : application/x-truetype-font
Stream mapping:
  Stream #0:0 (hevc) -> settb:default
  Stream #1:0 (h264) -> settb:default
  psnr:default -> Stream #0:0 (wrapped_avframe)
  Stream #0:1 -> #0:1 (aac (native) -> pcm_s16le (native))
[swscaler @ 000001b98a6085c0] No accelerated colorspace conversion found from yuv420p to bgr48le.
[swscaler @ 000001b98a751e40] No accelerated colorspace conversion found from yuv420p to bgr48le.
[swscaler @ 000001b98a7a57c0] No accelerated colorspace conversion found from yuv420p to bgr48le.
[swscaler @ 000001b98a828900] No accelerated colorspace conversion found from yuv420p to bgr48le.
[swscaler @ 000001b987a32700] No accelerated colorspace conversion found from yuv420p to bgr48le.
[swscaler @ 000001b98aa6d200] No accelerated colorspace conversion found from yuv420p to bgr48le.
[swscaler @ 000001b98aacd5c0] No accelerated colorspace conversion found from yuv420p to bgr48le.
[swscaler @ 000001b98abd9d80] No accelerated colorspace conversion found from yuv420p to bgr48le.
[swscaler @ 000001b98ad27040] No accelerated colorspace conversion found from yuv420p to bgr48le.
[swscaler @ 000001b98ae677c0] No accelerated colorspace conversion found from yuv420p to bgr48le.
[swscaler @ 000001b98afe1ac0] No accelerated colorspace conversion found from yuv420p to bgr48le.
[swscaler @ 000001b98b088b40] No accelerated colorspace conversion found from yuv420p to bgr48le.
[swscaler @ 000001b98b17c040] No accelerated colorspace conversion found from yuv420p to bgr48le.
[swscaler @ 000001b98f263040] No accelerated colorspace conversion found from yuv420p to bgr48le.
[swscaler @ 000001b98f2ce040] No accelerated colorspace conversion found from yuv420p to bgr48le.
[swscaler @ 000001b98f332040] No accelerated colorspace conversion found from yuv420p to bgr48le.
Output #0, null, to 'pipe:':
  Metadata:
    encoder         : Lavf61.7.100
  Stream #0:0: Video: wrapped_avframe, yuv420p10le(tv, bt709, progressive), 1280x720 [SAR 1:1 DAR 16:9], q=2-31, 200 kb/s, 23.98 fps, 23.98 tbn
      Metadata:
        encoder         : Lavc61.19.100 wrapped_avframe
  Stream #0:1(rus): Audio: pcm_s16le, 48000 Hz, stereo, s16, 1536 kb/s (default)
      Metadata:
        title           : Metacarmex & Say
        _STATISTICS_TAGS: BPS DURATION NUMBER_OF_FRAMES NUMBER_OF_BYTES
        BPS             : 193788
        DURATION        : 00:23:41.076000000
        NUMBER_OF_FRAMES: 66614
        NUMBER_OF_BYTES : 34423442
        _STATISTICS_WRITING_APP: mkvpropedit v66.0.0 ('Josie') 64-bit
        _STATISTICS_WRITING_DATE_UTC: 2025-06-23 08:03:20
        encoder         : Lavc61.19.100 pcm_s16le
frame=   80 fps=0.0 q=-0.0 size=N/A time=00:00:03.33 bitrate=N/A speed=6.64x    frame=  181 fps=176 q=-0.0 size=N/A time=00:00:07.54 bitrate=N/A speed=7.34x    frame=  282 fps=183 q=-0.0 size=N/A time=00:00:11.76 bitrate=N/A speed=7.63x    frame=  381 fps=186 q=-0.0 size=N/A time=00:00:15.89 bitrate=N/A speed=7.74x    frame=  480 fps=186 q=-0.0 size=N/A time=00:00:20.02 bitrate=N/A speed=7.76x    frame=  565 fps=183 q=-0.0 size=N/A time=00:00:23.56 bitrate=N/A speed=7.62x    frame=  678 fps=188 q=-0.0 size=N/A time=00:00:28.27 bitrate=N/A speed=7.85x    frame=  778 fps=189 q=-0.0 size=N/A time=00:00:32.44 bitrate=N/A speed=7.89x    frame=  881 fps=190 q=-0.0 size=N/A time=00:00:36.74 bitrate=N/A speed=7.92x    frame=  983 fps=191 q=-0.0 size=N/A time=00:00:40.99 bitrate=N/A speed=7.96x    frame= 1082 fps=191 q=-0.0 size=N/A time=00:00:45.12 bitrate=N/A speed=7.97x    frame= 1182 fps=191 q=-0.0 size=N/A time=00:00:49.29 bitrate=N/A speed=7.98x    frame= 1287 fps=192 q=-0.0 size=N/A time=00:00:53.67 bitrate=N/A speed=8.01x    frame= 1385 fps=192 q=-0.0 size=N/A time=00:00:57.76 bitrate=N/A speed=8.01x    frame= 1488 fps=193 q=-0.0 size=N/A time=00:01:02.06 bitrate=N/A speed=8.03x    frame= 1585 fps=192 q=-0.0 size=N/A time=00:01:06.10 bitrate=N/A speed=8.03x    frame= 1682 fps=192 q=-0.0 size=N/A time=00:01:10.15 bitrate=N/A speed=   8x    frame= 1783 fps=192 q=-0.0 size=N/A time=00:01:14.36 bitrate=N/A speed=8.02x    frame= 1873 fps=191 q=-0.0 size=N/A time=00:01:18.11 bitrate=N/A speed=7.98x    frame= 1982 fps=192 q=-0.0 size=N/A time=00:01:22.66 bitrate=N/A speed=8.02x    frame= 2081 fps=192 q=-0.0 size=N/A time=00:01:26.79 bitrate=N/A speed=8.02x    frame= 2177 fps=192 q=-0.0 size=N/A time=00:01:30.79 bitrate=N/A speed=8.01x    frame= 2275 fps=192 q=-0.0 size=N/A time=00:01:34.88 bitrate=N/A speed=8.01x    frame= 2375 fps=192 q=-0.0 size=N/A time=00:01:39.05 bitrate=N/A speed=   8x    frame= 2474 fps=192 q=-0.0 size=N/A time=00:01:43.18 bitrate=N/A speed=8.01x    frame= 2570 fps=192 q=-0.0 size=N/A time=00:01:47.19 bitrate=N/A speed=   8x    frame= 2668 fps=192 q=-0.0 size=N/A time=00:01:51.27 bitrate=N/A speed=   8x    frame= 2766 fps=192 q=-0.0 size=N/A time=00:01:55.36 bitrate=N/A speed=7.99x    frame= 2864 fps=192 q=-0.0 size=N/A time=00:01:59.45 bitrate=N/A speed=7.99x    frame= 2962 fps=192 q=-0.0 size=N/A time=00:02:03.54 bitrate=N/A speed=7.99x    frame= 3060 fps=192 q=-0.0 size=N/A time=00:02:07.62 bitrate=N/A speed=7.99x    frame= 3162 fps=192 q=-0.0 size=N/A time=00:02:11.88 bitrate=N/A speed=7.99x    frame= 3262 fps=192 q=-0.0 size=N/A time=00:02:16.05 bitrate=N/A speed=   8x    frame= 3359 fps=192 q=-0.0 size=N/A time=00:02:20.09 bitrate=N/A speed=   8x    frame= 3457 fps=192 q=-0.0 size=N/A time=00:02:24.18 bitrate=N/A speed=7.99x    frame= 3556 fps=192 q=-0.0 size=N/A time=00:02:28.31 bitrate=N/A speed=7.99x    frame= 3656 fps=192 q=-0.0 size=N/A time=00:02:32.48 bitrate=N/A speed=   8x    frame= 3755 fps=192 q=-0.0 size=N/A time=00:02:36.61 bitrate=N/A speed=   8x    frame= 3857 fps=192 q=-0.0 size=N/A time=00:02:40.86 bitrate=N/A speed=   8x    frame= 3948 fps=191 q=-0.0 size=N/A time=00:02:44.66 bitrate=N/A speed=7.99x    frame= 4062 fps=192 q=-0.0 size=N/A time=00:02:49.41 bitrate=N/A speed=8.02x    frame= 4162 fps=192 q=-0.0 size=N/A time=00:02:53.59 bitrate=N/A speed=8.02x    frame= 4261 fps=192 q=-0.0 size=N/A time=00:02:57.71 bitrate=N/A speed=8.02x    frame= 4369 fps=193 q=-0.0 size=N/A time=00:03:02.22 bitrate=N/A speed=8.03x    frame= 4471 fps=193 q=-0.0 size=N/A time=00:03:06.47 bitrate=N/A speed=8.04x    frame= 4572 fps=193 q=-0.0 size=N/A time=00:03:10.69 bitrate=N/A speed=8.04x    frame= 4678 fps=193 q=-0.0 size=N/A time=00:03:15.11 bitrate=N/A speed=8.05x    frame= 4778 fps=193 q=-0.0 size=N/A time=00:03:19.28 bitrate=N/A speed=8.05x    frame= 4880 fps=193 q=-0.0 size=N/A time=00:03:23.53 bitrate=N/A speed=8.06x    frame= 4983 fps=193 q=-0.0 size=N/A time=00:03:27.83 bitrate=N/A speed=8.06x    frame= 5083 fps=193 q=-0.0 size=N/A time=00:03:32.00 bitrate=N/A speed=8.06x    frame= 5182 fps=193 q=-0.0 size=N/A time=00:03:36.13 bitrate=N/A speed=8.06x    frame= 5280 fps=193 q=-0.0 size=N/A time=00:03:40.22 bitrate=N/A speed=8.06x    frame= 5372 fps=193 q=-0.0 size=N/A time=00:03:44.05 bitrate=N/A speed=8.05x    frame= 5472 fps=193 q=-0.0 size=N/A time=00:03:48.22 bitrate=N/A speed=8.05x    frame= 5576 fps=193 q=-0.0 size=N/A time=00:03:52.56 bitrate=N/A speed=8.06x    frame= 5674 fps=193 q=-0.0 size=N/A time=00:03:56.65 bitrate=N/A speed=8.06x    frame= 5775 fps=193 q=-0.0 size=N/A time=00:04:00.86 bitrate=N/A speed=8.05x    frame= 5873 fps=193 q=-0.0 size=N/A time=00:04:04.95 bitrate=N/A speed=8.05x    frame= 5974 fps=193 q=-0.0 size=N/A time=00:04:09.16 bitrate=N/A speed=8.06x    frame= 6072 fps=193 q=-0.0 size=N/A time=00:04:13.25 bitrate=N/A speed=8.06x    frame= 6174 fps=193 q=-0.0 size=N/A time=00:04:17.50 bitrate=N/A speed=8.06x    frame= 6273 fps=193 q=-0.0 size=N/A time=00:04:21.63 bitrate=N/A speed=8.06x    frame= 6371 fps=193 q=-0.0 size=N/A time=00:04:25.72 bitrate=N/A speed=8.05x    frame= 6467 fps=193 q=-0.0 size=N/A time=00:04:29.72 bitrate=N/A speed=8.05x    frame= 6571 fps=193 q=-0.0 size=N/A time=00:04:34.06 bitrate=N/A speed=8.05x    frame= 6664 fps=193 q=-0.0 size=N/A time=00:04:37.94 bitrate=N/A speed=8.05x    frame= 6769 fps=193 q=-0.0 size=N/A time=00:04:42.32 bitrate=N/A speed=8.05x    frame= 6870 fps=193 q=-0.0 size=N/A time=00:04:46.53 bitrate=N/A speed=8.05x    frame= 6971 fps=193 q=-0.0 size=N/A time=00:04:50.74 bitrate=N/A speed=8.06x    frame= 7067 fps=193 q=-0.0 size=N/A time=00:04:54.75 bitrate=N/A speed=8.05x    frame= 7170 fps=193 q=-0.0 size=N/A time=00:04:59.04 bitrate=N/A speed=8.06x    frame= 7273 fps=193 q=-0.0 size=N/A time=00:05:03.34 bitrate=N/A speed=8.06x    frame= 7367 fps=193 q=-0.0 size=N/A time=00:05:07.26 bitrate=N/A speed=8.05x    frame= 7474 fps=193 q=-0.0 size=N/A time=00:05:11.72 bitrate=N/A speed=8.06x    frame= 7579 fps=193 q=-0.0 size=N/A time=00:05:16.10 bitrate=N/A speed=8.07x    frame= 7681 fps=193 q=-0.0 size=N/A time=00:05:20.36 bitrate=N/A speed=8.07x    frame= 7781 fps=193 q=-0.0 size=N/A time=00:05:24.53 bitrate=N/A speed=8.07x    frame= 7871 fps=193 q=-0.0 size=N/A time=00:05:28.28 bitrate=N/A speed=8.06x    frame= 7981 fps=193 q=-0.0 size=N/A time=00:05:32.87 bitrate=N/A speed=8.07x    frame= 8083 fps=193 q=-0.0 size=N/A time=00:05:37.12 bitrate=N/A speed=8.07x    frame= 8172 fps=193 q=-0.0 size=N/A time=00:05:40.84 bitrate=N/A speed=8.06x    frame= 8276 fps=193 q=-0.0 size=N/A time=00:05:45.17 bitrate=N/A speed=8.06x    frame= 8376 fps=193 q=-0.0 size=N/A time=00:05:49.34 bitrate=N/A speed=8.06x    frame= 8481 fps=193 q=-0.0 size=N/A time=00:05:53.72 bitrate=N/A speed=8.07x    frame= 8581 fps=193 q=-0.0 size=N/A time=00:05:57.89 bitrate=N/A speed=8.07x    frame= 8667 fps=193 q=-0.0 size=N/A time=00:06:01.48 bitrate=N/A speed=8.06x    frame= 8782 fps=193 q=-0.0 size=N/A time=00:06:06.28 bitrate=N/A speed=8.07x    frame= 8880 fps=193 q=-0.0 size=N/A time=00:06:10.37 bitrate=N/A speed=8.07x    frame= 8975 fps=193 q=-0.0 size=N/A time=00:06:14.33 bitrate=N/A speed=8.07x    frame= 9080 fps=194 q=-0.0 size=N/A time=00:06:18.71 bitrate=N/A speed=8.07x    frame= 9186 fps=194 q=-0.0 size=N/A time=00:06:23.13 bitrate=N/A speed=8.07x    frame= 9284 fps=194 q=-0.0 size=N/A time=00:06:27.22 bitrate=N/A speed=8.07x    frame= 9379 fps=193 q=-0.0 size=N/A time=00:06:31.18 bitrate=N/A speed=8.07x    frame= 9488 fps=194 q=-0.0 size=N/A time=00:06:35.72 bitrate=N/A speed=8.08x    frame= 9588 fps=194 q=-0.0 size=N/A time=00:06:39.89 bitrate=N/A speed=8.08x    frame= 9688 fps=194 q=-0.0 size=N/A time=00:06:44.07 bitrate=N/A speed=8.08x    frame= 9786 fps=194 q=-0.0 size=N/A time=00:06:48.15 bitrate=N/A speed=8.08x    frame= 9877 fps=193 q=-0.0 size=N/A time=00:06:51.95 bitrate=N/A speed=8.07x    frame= 9981 fps=194 q=-0.0 size=N/A time=00:06:56.29 bitrate=N/A speed=8.07x    frame=10078 fps=193 q=-0.0 size=N/A time=00:07:00.33 bitrate=N/A speed=8.07x    frame=10180 fps=194 q=-0.0 size=N/A time=00:07:04.59 bitrate=N/A speed=8.07x    frame=10282 fps=194 q=-0.0 size=N/A time=00:07:08.84 bitrate=N/A speed=8.07x    frame=10381 fps=194 q=-0.0 size=N/A time=00:07:12.97 bitrate=N/A speed=8.07x    frame=10478 fps=194 q=-0.0 size=N/A time=00:07:17.01 bitrate=N/A speed=8.07x    frame=10582 fps=194 q=-0.0 size=N/A time=00:07:21.35 bitrate=N/A speed=8.07x    frame=10681 fps=194 q=-0.0 size=N/A time=00:07:25.48 bitrate=N/A speed=8.07x    frame=10780 fps=194 q=-0.0 size=N/A time=00:07:29.61 bitrate=N/A speed=8.07x    frame=10887 fps=194 q=-0.0 size=N/A time=00:07:34.07 bitrate=N/A speed=8.08x    frame=10989 fps=194 q=-0.0 size=N/A time=00:07:38.33 bitrate=N/A speed=8.08x    frame=11085 fps=194 q=-0.0 size=N/A time=00:07:42.33 bitrate=N/A speed=8.08x    frame=11192 fps=194 q=-0.0 size=N/A time=00:07:46.79 bitrate=N/A speed=8.08x    frame=11291 fps=194 q=-0.0 size=N/A time=00:07:50.92 bitrate=N/A speed=8.08x    frame=11394 fps=194 q=-0.0 size=N/A time=00:07:55.22 bitrate=N/A speed=8.08x    frame=11494 fps=194 q=-0.0 size=N/A time=00:07:59.39 bitrate=N/A speed=8.08x    frame=11590 fps=194 q=-0.0 size=N/A time=00:08:03.39 bitrate=N/A speed=8.08x    frame=11692 fps=194 q=-0.0 size=N/A time=00:08:07.65 bitrate=N/A speed=8.08x    frame=11784 fps=194 q=-0.0 size=N/A time=00:08:11.49 bitrate=N/A speed=8.08x    frame=11895 fps=194 q=-0.0 size=N/A time=00:08:16.12 bitrate=N/A speed=8.08x    frame=11984 fps=194 q=-0.0 size=N/A time=00:08:19.83 bitrate=N/A speed=8.08x    frame=12096 fps=194 q=-0.0 size=N/A time=00:08:24.50 bitrate=N/A speed=8.09x    frame=12200 fps=194 q=-0.0 size=N/A time=00:08:28.84 bitrate=N/A speed=8.09x    frame=12299 fps=194 q=-0.0 size=N/A time=00:08:32.97 bitrate=N/A speed=8.09x    frame=12398 fps=194 q=-0.0 size=N/A time=00:08:37.09 bitrate=N/A speed=8.09x    frame=12489 fps=194 q=-0.0 size=N/A time=00:08:40.89 bitrate=N/A speed=8.08x    frame=12600 fps=194 q=-0.0 size=N/A time=00:08:45.52 bitrate=N/A speed=8.09x    frame=12699 fps=194 q=-0.0 size=N/A time=00:08:49.65 bitrate=N/A speed=8.09x    frame=12797 fps=194 q=-0.0 size=N/A time=00:08:53.74 bitrate=N/A speed=8.09x    frame=12897 fps=194 q=-0.0 size=N/A time=00:08:57.91 bitrate=N/A speed=8.08x    frame=12999 fps=194 q=-0.0 size=N/A time=00:09:02.16 bitrate=N/A speed=8.09x    frame=13097 fps=194 q=-0.0 size=N/A time=00:09:06.25 bitrate=N/A speed=8.09x    frame=13197 fps=194 q=-0.0 size=N/A time=00:09:10.42 bitrate=N/A speed=8.09x    frame=13298 fps=194 q=-0.0 size=N/A time=00:09:14.63 bitrate=N/A speed=8.09x    frame=13393 fps=194 q=-0.0 size=N/A time=00:09:18.59 bitrate=N/A speed=8.08x    frame=13497 fps=194 q=-0.0 size=N/A time=00:09:22.93 bitrate=N/A speed=8.09x    frame=13598 fps=194 q=-0.0 size=N/A time=00:09:27.14 bitrate=N/A speed=8.09x    frame=13697 fps=194 q=-0.0 size=N/A time=00:09:31.27 bitrate=N/A speed=8.09x    frame=13801 fps=194 q=-0.0 size=N/A time=00:09:35.61 bitrate=N/A speed=8.09x    frame=13901 fps=194 q=-0.0 size=N/A time=00:09:39.78 bitrate=N/A speed=8.09x    frame=14003 fps=194 q=-0.0 size=N/A time=00:09:44.04 bitrate=N/A speed=8.09x    frame=14105 fps=194 q=-0.0 size=N/A time=00:09:48.29 bitrate=N/A speed=8.09x    frame=14204 fps=194 q=-0.0 size=N/A time=00:09:52.42 bitrate=N/A speed=8.09x    frame=14293 fps=194 q=-0.0 size=N/A time=00:09:56.13 bitrate=N/A speed=8.08x    frame=14407 fps=194 q=-0.0 size=N/A time=00:10:00.89 bitrate=N/A speed=8.09x    frame=14499 fps=194 q=-0.0 size=N/A time=00:10:04.72 bitrate=N/A speed=8.09x    frame=14603 fps=194 q=-0.0 size=N/A time=00:10:09.06 bitrate=N/A speed=8.09x    frame=14698 fps=194 q=-0.0 size=N/A time=00:10:13.02 bitrate=N/A speed=8.09x    frame=14808 fps=194 q=-0.0 size=N/A time=00:10:17.61 bitrate=N/A speed=8.09x    frame=14906 fps=194 q=-0.0 size=N/A time=00:10:21.70 bitrate=N/A speed=8.09x    frame=15003 fps=194 q=-0.0 size=N/A time=00:10:25.75 bitrate=N/A speed=8.09x    frame=15108 fps=194 q=-0.0 size=N/A time=00:10:30.12 bitrate=N/A speed=8.09x    frame=15209 fps=194 q=-0.0 size=N/A time=00:10:34.34 bitrate=N/A speed=8.09x    frame=15310 fps=194 q=-0.0 size=N/A time=00:10:38.55 bitrate=N/A speed=8.09x    frame=15411 fps=194 q=-0.0 size=N/A time=00:10:42.76 bitrate=N/A speed=8.09x    frame=15508 fps=194 q=-0.0 size=N/A time=00:10:46.81 bitrate=N/A speed=8.09x    frame=15615 fps=194 q=-0.0 size=N/A time=00:10:51.27 bitrate=N/A speed= 8.1x    frame=15715 fps=194 q=-0.0 size=N/A time=00:10:55.44 bitrate=N/A speed= 8.1x    frame=15818 fps=194 q=-0.0 size=N/A time=00:10:59.74 bitrate=N/A speed= 8.1x    frame=15921 fps=194 q=-0.0 size=N/A time=00:11:04.03 bitrate=N/A speed= 8.1x    frame=16020 fps=194 q=-0.0 size=N/A time=00:11:08.16 bitrate=N/A speed= 8.1x    frame=16123 fps=194 q=-0.0 size=N/A time=00:11:12.46 bitrate=N/A speed= 8.1x    frame=16225 fps=194 q=-0.0 size=N/A time=00:11:16.71 bitrate=N/A speed= 8.1x    frame=16327 fps=194 q=-0.0 size=N/A time=00:11:20.97 bitrate=N/A speed= 8.1x    frame=16421 fps=194 q=-0.0 size=N/A time=00:11:24.89 bitrate=N/A speed= 8.1x    frame=16530 fps=194 q=-0.0 size=N/A time=00:11:29.43 bitrate=N/A speed= 8.1x    frame=16629 fps=194 q=-0.0 size=N/A time=00:11:33.56 bitrate=N/A speed= 8.1x    frame=16724 fps=194 q=-0.0 size=N/A time=00:11:37.53 bitrate=N/A speed= 8.1x    frame=16836 fps=194 q=-0.0 size=N/A time=00:11:42.20 bitrate=N/A speed=8.11x    frame=16936 fps=194 q=-0.0 size=N/A time=00:11:46.37 bitrate=N/A speed=8.11x    frame=17035 fps=194 q=-0.0 size=N/A time=00:11:50.50 bitrate=N/A speed=8.11x    frame=17132 fps=194 q=-0.0 size=N/A time=00:11:54.54 bitrate=N/A speed= 8.1x    frame=17237 fps=194 q=-0.0 size=N/A time=00:11:58.92 bitrate=N/A speed=8.11x    frame=17337 fps=194 q=-0.0 size=N/A time=00:12:03.09 bitrate=N/A speed=8.11x    frame=17437 fps=194 q=-0.0 size=N/A time=00:12:07.26 bitrate=N/A speed= 8.1x    frame=17535 fps=194 q=-0.0 size=N/A time=00:12:11.35 bitrate=N/A speed= 8.1x    frame=17624 fps=194 q=-0.0 size=N/A time=00:12:15.06 bitrate=N/A speed= 8.1x    frame=17726 fps=194 q=-0.0 size=N/A time=00:12:19.32 bitrate=N/A speed= 8.1x    frame=17833 fps=194 q=-0.0 size=N/A time=00:12:23.78 bitrate=N/A speed= 8.1x    frame=17932 fps=194 q=-0.0 size=N/A time=00:12:27.91 bitrate=N/A speed= 8.1x    frame=18025 fps=194 q=-0.0 size=N/A time=00:12:31.79 bitrate=N/A speed= 8.1x    frame=18132 fps=194 q=-0.0 size=N/A time=00:12:36.25 bitrate=N/A speed= 8.1x    frame=18235 fps=194 q=-0.0 size=N/A time=00:12:40.55 bitrate=N/A speed= 8.1x    frame=18328 fps=194 q=-0.0 size=N/A time=00:12:44.43 bitrate=N/A speed= 8.1x    frame=18436 fps=194 q=-0.0 size=N/A time=00:12:48.93 bitrate=N/A speed= 8.1x    frame=18536 fps=194 q=-0.0 size=N/A time=00:12:53.10 bitrate=N/A speed= 8.1x    frame=18637 fps=194 q=-0.0 size=N/A time=00:12:57.31 bitrate=N/A speed= 8.1x    frame=18732 fps=194 q=-0.0 size=N/A time=00:13:01.28 bitrate=N/A speed= 8.1x    frame=18833 fps=194 q=-0.0 size=N/A time=00:13:05.49 bitrate=N/A speed= 8.1x    frame=18934 fps=194 q=-0.0 size=N/A time=00:13:09.70 bitrate=N/A speed= 8.1x    frame=19036 fps=194 q=-0.0 size=N/A time=00:13:13.95 bitrate=N/A speed= 8.1x    frame=19129 fps=194 q=-0.0 size=N/A time=00:13:17.83 bitrate=N/A speed= 8.1x    frame=19235 fps=194 q=-0.0 size=N/A time=00:13:22.25 bitrate=N/A speed= 8.1x    frame=19339 fps=194 q=-0.0 size=N/A time=00:13:26.59 bitrate=N/A speed= 8.1x    frame=19440 fps=194 q=-0.0 size=N/A time=00:13:30.81 bitrate=N/A speed= 8.1x    frame=19541 fps=194 q=-0.0 size=N/A time=00:13:35.02 bitrate=N/A speed=8.11x    frame=19641 fps=194 q=-0.0 size=N/A time=00:13:39.19 bitrate=N/A speed=8.11x    frame=19743 fps=194 q=-0.0 size=N/A time=00:13:43.44 bitrate=N/A speed=8.11x    frame=19843 fps=194 q=-0.0 size=N/A time=00:13:47.61 bitrate=N/A speed=8.11x    frame=19944 fps=194 q=-0.0 size=N/A time=00:13:51.83 bitrate=N/A speed=8.11x    frame=20043 fps=194 q=-0.0 size=N/A time=00:13:55.96 bitrate=N/A speed=8.11x    frame=20148 fps=194 q=-0.0 size=N/A time=00:14:00.33 bitrate=N/A speed=8.11x    frame=20234 fps=194 q=-0.0 size=N/A time=00:14:03.92 bitrate=N/A speed= 8.1x    frame=20346 fps=194 q=-0.0 size=N/A time=00:14:08.59 bitrate=N/A speed=8.11x    frame=20448 fps=194 q=-0.0 size=N/A time=00:14:12.85 bitrate=N/A speed=8.11x    frame=20550 fps=194 q=-0.0 size=N/A time=00:14:17.10 bitrate=N/A speed=8.11x    frame=20650 fps=194 q=-0.0 size=N/A time=00:14:21.27 bitrate=N/A speed=8.11x    frame=20748 fps=194 q=-0.0 size=N/A time=00:14:25.36 bitrate=N/A speed=8.11x    frame=20853 fps=194 q=-0.0 size=N/A time=00:14:29.74 bitrate=N/A speed=8.11x    frame=20954 fps=194 q=-0.0 size=N/A time=00:14:33.95 bitrate=N/A speed=8.11x    frame=21054 fps=194 q=-0.0 size=N/A time=00:14:38.12 bitrate=N/A speed=8.11x    frame=21147 fps=194 q=-0.0 size=N/A time=00:14:42.00 bitrate=N/A speed=8.11x    frame=21252 fps=194 q=-0.0 size=N/A time=00:14:46.38 bitrate=N/A speed=8.11x    frame=21353 fps=194 q=-0.0 size=N/A time=00:14:50.59 bitrate=N/A speed=8.11x    frame=21452 fps=194 q=-0.0 size=N/A time=00:14:54.72 bitrate=N/A speed=8.11x    frame=21551 fps=194 q=-0.0 size=N/A time=00:14:58.85 bitrate=N/A speed=8.11x    frame=21652 fps=194 q=-0.0 size=N/A time=00:15:03.06 bitrate=N/A speed=8.11x    frame=21748 fps=194 q=-0.0 size=N/A time=00:15:07.07 bitrate=N/A speed=8.11x    frame=21845 fps=194 q=-0.0 size=N/A time=00:15:11.11 bitrate=N/A speed=8.11x    frame=21948 fps=194 q=-0.0 size=N/A time=00:15:15.41 bitrate=N/A speed=8.11x    frame=22051 fps=194 q=-0.0 size=N/A time=00:15:19.71 bitrate=N/A speed=8.11x    frame=22153 fps=194 q=-0.0 size=N/A time=00:15:23.96 bitrate=N/A speed=8.11x    frame=22252 fps=194 q=-0.0 size=N/A time=00:15:28.09 bitrate=N/A speed=8.11x    frame=22351 fps=194 q=-0.0 size=N/A time=00:15:32.22 bitrate=N/A speed=8.11x    frame=22455 fps=194 q=-0.0 size=N/A time=00:15:36.56 bitrate=N/A speed=8.11x    frame=22552 fps=194 q=-0.0 size=N/A time=00:15:40.60 bitrate=N/A speed=8.11x    frame=22651 fps=194 q=-0.0 size=N/A time=00:15:44.73 bitrate=N/A speed=8.11x    frame=22757 fps=194 q=-0.0 size=N/A time=00:15:49.15 bitrate=N/A speed=8.11x    frame=22855 fps=194 q=-0.0 size=N/A time=00:15:53.24 bitrate=N/A speed=8.11x    frame=22954 fps=194 q=-0.0 size=N/A time=00:15:57.37 bitrate=N/A speed=8.11x    frame=23059 fps=194 q=-0.0 size=N/A time=00:16:01.75 bitrate=N/A speed=8.11x    frame=23163 fps=194 q=-0.0 size=N/A time=00:16:06.09 bitrate=N/A speed=8.11x    frame=23263 fps=194 q=-0.0 size=N/A time=00:16:10.26 bitrate=N/A speed=8.11x    frame=23363 fps=194 q=-0.0 size=N/A time=00:16:14.43 bitrate=N/A speed=8.11x    frame=23462 fps=194 q=-0.0 size=N/A time=00:16:18.56 bitrate=N/A speed=8.11x    frame=23558 fps=194 q=-0.0 size=N/A time=00:16:22.56 bitrate=N/A speed=8.11x    frame=23663 fps=194 q=-0.0 size=N/A time=00:16:26.94 bitrate=N/A speed=8.11x    frame=23760 fps=194 q=-0.0 size=N/A time=00:16:30.99 bitrate=N/A speed=8.11x    frame=23862 fps=194 q=-0.0 size=N/A time=00:16:35.24 bitrate=N/A speed=8.11x    frame=23961 fps=194 q=-0.0 size=N/A time=00:16:39.37 bitrate=N/A speed=8.11x    frame=24060 fps=194 q=-0.0 size=N/A time=00:16:43.50 bitrate=N/A speed=8.11x    frame=24160 fps=194 q=-0.0 size=N/A time=00:16:47.67 bitrate=N/A speed=8.11x    frame=24264 fps=194 q=-0.0 size=N/A time=00:16:52.01 bitrate=N/A speed=8.11x    frame=24362 fps=194 q=-0.0 size=N/A time=00:16:56.09 bitrate=N/A speed=8.11x    frame=24461 fps=194 q=-0.0 size=N/A time=00:17:00.22 bitrate=N/A speed=8.11x    frame=24562 fps=194 q=-0.0 size=N/A time=00:17:04.44 bitrate=N/A speed=8.11x    frame=24652 fps=194 q=-0.0 size=N/A time=00:17:08.19 bitrate=N/A speed=8.11x    frame=24765 fps=194 q=-0.0 size=N/A time=00:17:12.90 bitrate=N/A speed=8.11x    frame=24860 fps=194 q=-0.0 size=N/A time=00:17:16.86 bitrate=N/A speed=8.11x    frame=24967 fps=194 q=-0.0 size=N/A time=00:17:21.33 bitrate=N/A speed=8.11x    frame=25066 fps=194 q=-0.0 size=N/A time=00:17:25.46 bitrate=N/A speed=8.11x    frame=25174 fps=194 q=-0.0 size=N/A time=00:17:29.96 bitrate=N/A speed=8.11x    frame=25272 fps=194 q=-0.0 size=N/A time=00:17:34.05 bitrate=N/A speed=8.11x    frame=25372 fps=194 q=-0.0 size=N/A time=00:17:38.22 bitrate=N/A speed=8.11x    frame=25472 fps=194 q=-0.0 size=N/A time=00:17:42.39 bitrate=N/A speed=8.11x    frame=25571 fps=194 q=-0.0 size=N/A time=00:17:46.52 bitrate=N/A speed=8.11x    frame=25672 fps=194 q=-0.0 size=N/A time=00:17:50.73 bitrate=N/A speed=8.11x    frame=25775 fps=194 q=-0.0 size=N/A time=00:17:55.03 bitrate=N/A speed=8.11x    frame=25874 fps=194 q=-0.0 size=N/A time=00:17:59.16 bitrate=N/A speed=8.11x    frame=25975 fps=194 q=-0.0 size=N/A time=00:18:03.37 bitrate=N/A speed=8.11x    frame=26074 fps=194 q=-0.0 size=N/A time=00:18:07.50 bitrate=N/A speed=8.11x    frame=26178 fps=194 q=-0.0 size=N/A time=00:18:11.84 bitrate=N/A speed=8.11x    frame=26275 fps=194 q=-0.0 size=N/A time=00:18:15.88 bitrate=N/A speed=8.11x    frame=26377 fps=194 q=-0.0 size=N/A time=00:18:20.14 bitrate=N/A speed=8.11x    frame=26474 fps=194 q=-0.0 size=N/A time=00:18:24.18 bitrate=N/A speed=8.11x    frame=26577 fps=194 q=-0.0 size=N/A time=00:18:28.48 bitrate=N/A speed=8.11x    frame=26671 fps=194 q=-0.0 size=N/A time=00:18:32.40 bitrate=N/A speed=8.11x    frame=26768 fps=194 q=-0.0 size=N/A time=00:18:36.44 bitrate=N/A speed=8.11x    frame=26857 fps=194 q=-0.0 size=N/A time=00:18:40.16 bitrate=N/A speed=8.11x    frame=26967 fps=194 q=-0.0 size=N/A time=00:18:44.74 bitrate=N/A speed=8.11x    frame=27067 fps=194 q=-0.0 size=N/A time=00:18:48.91 bitrate=N/A speed=8.11x    frame=27164 fps=194 q=-0.0 size=N/A time=00:18:52.96 bitrate=N/A speed=8.11x    frame=27255 fps=194 q=-0.0 size=N/A time=00:18:56.76 bitrate=N/A speed= 8.1x    frame=27367 fps=194 q=-0.0 size=N/A time=00:19:01.43 bitrate=N/A speed=8.11x    frame=27472 fps=194 q=-0.0 size=N/A time=00:19:05.81 bitrate=N/A speed=8.11x    frame=27569 fps=194 q=-0.0 size=N/A time=00:19:09.85 bitrate=N/A speed=8.11x    frame=27678 fps=194 q=-0.0 size=N/A time=00:19:14.40 bitrate=N/A speed=8.11x    frame=27781 fps=194 q=-0.0 size=N/A time=00:19:18.69 bitrate=N/A speed=8.11x    frame=27877 fps=194 q=-0.0 size=N/A time=00:19:22.70 bitrate=N/A speed=8.11x    frame=27982 fps=195 q=-0.0 size=N/A time=00:19:27.08 bitrate=N/A speed=8.11x    frame=28085 fps=195 q=-0.0 size=N/A time=00:19:31.37 bitrate=N/A speed=8.11x    frame=28189 fps=195 q=-0.0 size=N/A time=00:19:35.71 bitrate=N/A speed=8.11x    frame=28285 fps=195 q=-0.0 size=N/A time=00:19:39.72 bitrate=N/A speed=8.11x    frame=28396 fps=195 q=-0.0 size=N/A time=00:19:44.34 bitrate=N/A speed=8.12x    frame=28494 fps=195 q=-0.0 size=N/A time=00:19:48.43 bitrate=N/A speed=8.11x    frame=28595 fps=195 q=-0.0 size=N/A time=00:19:52.64 bitrate=N/A speed=8.12x    frame=28696 fps=195 q=-0.0 size=N/A time=00:19:56.86 bitrate=N/A speed=8.12x    frame=28799 fps=195 q=-0.0 size=N/A time=00:20:01.15 bitrate=N/A speed=8.12x    frame=28901 fps=195 q=-0.0 size=N/A time=00:20:05.41 bitrate=N/A speed=8.12x    frame=28998 fps=195 q=-0.0 size=N/A time=00:20:09.45 bitrate=N/A speed=8.12x    frame=29104 fps=195 q=-0.0 size=N/A time=00:20:13.87 bitrate=N/A speed=8.12x    frame=29198 fps=195 q=-0.0 size=N/A time=00:20:17.79 bitrate=N/A speed=8.12x    frame=29303 fps=195 q=-0.0 size=N/A time=00:20:22.17 bitrate=N/A speed=8.12x    frame=29412 fps=195 q=-0.0 size=N/A time=00:20:26.72 bitrate=N/A speed=8.12x    frame=29506 fps=195 q=-0.0 size=N/A time=00:20:30.64 bitrate=N/A speed=8.12x    frame=29611 fps=195 q=-0.0 size=N/A time=00:20:35.02 bitrate=N/A speed=8.12x    frame=29714 fps=195 q=-0.0 size=N/A time=00:20:39.32 bitrate=N/A speed=8.12x    frame=29804 fps=195 q=-0.0 size=N/A time=00:20:43.07 bitrate=N/A speed=8.12x    frame=29918 fps=195 q=-0.0 size=N/A time=00:20:47.82 bitrate=N/A speed=8.12x    frame=30008 fps=195 q=-0.0 size=N/A time=00:20:51.58 bitrate=N/A speed=8.12x    frame=30115 fps=195 q=-0.0 size=N/A time=00:20:56.04 bitrate=N/A speed=8.12x    frame=30222 fps=195 q=-0.0 size=N/A time=00:21:00.50 bitrate=N/A speed=8.12x    frame=30328 fps=195 q=-0.0 size=N/A time=00:21:04.93 bitrate=N/A speed=8.12x    frame=30426 fps=195 q=-0.0 size=N/A time=00:21:09.01 bitrate=N/A speed=8.12x    frame=30519 fps=195 q=-0.0 size=N/A time=00:21:12.89 bitrate=N/A speed=8.12x    frame=30628 fps=195 q=-0.0 size=N/A time=00:21:17.44 bitrate=N/A speed=8.12x    frame=30718 fps=195 q=-0.0 size=N/A time=00:21:21.19 bitrate=N/A speed=8.12x    frame=30832 fps=195 q=-0.0 size=N/A time=00:21:25.95 bitrate=N/A speed=8.12x    frame=30926 fps=195 q=-0.0 size=N/A time=00:21:29.87 bitrate=N/A speed=8.12x    frame=31031 fps=195 q=-0.0 size=N/A time=00:21:34.25 bitrate=N/A speed=8.12x    frame=31135 fps=195 q=-0.0 size=N/A time=00:21:38.58 bitrate=N/A speed=8.12x    frame=31238 fps=195 q=-0.0 size=N/A time=00:21:42.88 bitrate=N/A speed=8.12x    frame=31328 fps=195 q=-0.0 size=N/A time=00:21:46.63 bitrate=N/A speed=8.12x    frame=31438 fps=195 q=-0.0 size=N/A time=00:21:51.22 bitrate=N/A speed=8.12x    frame=31545 fps=195 q=-0.0 size=N/A time=00:21:55.68 bitrate=N/A speed=8.12x    frame=31637 fps=195 q=-0.0 size=N/A time=00:21:59.52 bitrate=N/A speed=8.12x    frame=31742 fps=195 q=-0.0 size=N/A time=00:22:03.90 bitrate=N/A speed=8.12x    frame=31844 fps=195 q=-0.0 size=N/A time=00:22:08.16 bitrate=N/A speed=8.12x    frame=31941 fps=195 q=-0.0 size=N/A time=00:22:12.20 bitrate=N/A speed=8.12x    frame=32037 fps=195 q=-0.0 size=N/A time=00:22:16.20 bitrate=N/A speed=8.12x    frame=32132 fps=195 q=-0.0 size=N/A time=00:22:20.17 bitrate=N/A speed=8.12x    frame=32221 fps=195 q=-0.0 size=N/A time=00:22:23.88 bitrate=N/A speed=8.12x    frame=32322 fps=195 q=-0.0 size=N/A time=00:22:28.09 bitrate=N/A speed=8.12x    frame=32415 fps=195 q=-0.0 size=N/A time=00:22:31.97 bitrate=N/A speed=8.12x    frame=32510 fps=195 q=-0.0 size=N/A time=00:22:35.93 bitrate=N/A speed=8.12x    frame=32602 fps=195 q=-0.0 size=N/A time=00:22:39.77 bitrate=N/A speed=8.11x    frame=32701 fps=195 q=-0.0 size=N/A time=00:22:43.90 bitrate=N/A speed=8.11x    frame=32798 fps=194 q=-0.0 size=N/A time=00:22:47.94 bitrate=N/A speed=8.11x    frame=32898 fps=194 q=-0.0 size=N/A time=00:22:52.12 bitrate=N/A speed=8.11x    frame=32994 fps=194 q=-0.0 size=N/A time=00:22:56.12 bitrate=N/A speed=8.11x    frame=33086 fps=194 q=-0.0 size=N/A time=00:22:59.96 bitrate=N/A speed=8.11x    frame=33184 fps=194 q=-0.0 size=N/A time=00:23:04.04 bitrate=N/A speed=8.11x    frame=33286 fps=194 q=-0.0 size=N/A time=00:23:08.30 bitrate=N/A speed=8.11x    frame=33383 fps=194 q=-0.0 size=N/A time=00:23:12.34 bitrate=N/A speed=8.11x    frame=33471 fps=194 q=-0.0 size=N/A time=00:23:16.01 bitrate=N/A speed= 8.1x    frame=33574 fps=194 q=-0.0 size=N/A time=00:23:20.31 bitrate=N/A speed=8.11x    frame=33670 fps=194 q=-0.0 size=N/A time=00:23:24.31 bitrate=N/A speed= 8.1x    frame=33764 fps=194 q=-0.0 size=N/A time=00:23:28.24 bitrate=N/A speed= 8.1x    frame=33859 fps=194 q=-0.0 size=N/A time=00:23:32.20 bitrate=N/A speed= 8.1x    frame=33951 fps=194 q=-0.0 size=N/A time=00:23:36.03 bitrate=N/A speed= 8.1x    frame=34059 fps=194 q=-0.0 size=N/A time=00:23:40.54 bitrate=N/A speed= 8.1x    [Parsed_psnr_10 @ 000001b98152c980] PSNR y:45.103418 u:49.685918 v:49.855589 average:46.179749 min:39.246353 max:inf
[out#0/null @ 000001b9fdf22080] video:14640KiB audio:266456KiB subtitle:0KiB other streams:0KiB global headers:0KiB muxing overhead: unknown
frame=34071 fps=194 q=-0.0 Lsize=N/A time=00:23:41.04 bitrate=N/A speed= 8.1x    
